# xmcd
#
# Track frame offsets: 
#        150
#        14145
#        28554
#        42311
#        57877
#        73150
#        86127
#        99128
#        113860
#        127473
#        141257
#        155199
#        168759
#        181737
#        194618
#        207386
#        221592
#        235204
#        248082
#        261287
#        276852
#        291001
#        305440
#        319212
#        330814
#
# Disc length: 4562 seconds
#
# Revision: 0
# Processed by: cddbd v1.5.2PL0 Copyright (c) Steve Scherf et al.
# Submitted via: ExactAudioCopy v0.95a5
#
DISCID=7d11d019
DTITLE=Various Artist - Century of the Blues: The Definitive Country Blues (d
DTITLE=isc one)
DYEAR=2003
DGENRE=Blues
TTITLE0=Mississippi Boweavil Blues - Charlie Patton
TTITLE1=My Black Mama (Part 1) - Son House
TTITLE2=Future Blues - Willie Brown
TTITLE3=Canned Heat - Tommy Johnson
TTITLE4=Left Alone Blues - Ishmon Bracey
TTITLE5=Preachin' Blues (Up Jumped The Devil) - Robert Johnson
TTITLE6=Kind Hearted Woman Blues - Robert Johnson
TTITLE7=Wind Howlin' Blues - Honey Boy Edwards
TTITLE8=Devil Got My Woman - Skip James
TTITLE9=Shake 'Em On Down - Bukka White
TTITLE10=Sitting On Top Of The World - Mississippi Sheiks
TTITLE11=Stac O'lee Blues - Mississippi John Hurt
TTITLE12=Barrelhouse Blues - Ed Andrews
TTITLE13=Catfish Blues - Robert Petway
TTITLE14=Bottle It Up And Go - Tommy Mclennan
TTITLE15=Bull Frog Blues - William Harris
TTITLE16=Mule Skinner Blues - Jimmie Rogers
TTITLE17=Farewell Blues - Sol Hoopi
TTITLE18=Old Original Kokomo Blues - Kokomo Arnold
TTITLE19=Country Blues - Muddy Waters
TTITLE20=I Be Troubled - Muddy Waters
TTITLE21=Boogie Chillen - John Lee Hooker
TTITLE22=Little Boy Blue - Robert Junior Lockwood
TTITLE23=Ramblin' - Johnny Shines
TTITLE24=Yellow Dog Blues - Sam Collins
EXTD=
EXTT0=
EXTT1=
EXTT2=
EXTT3=
EXTT4=
EXTT5=
EXTT6=
EXTT7=
EXTT8=
EXTT9=
EXTT10=
EXTT11=
EXTT12=
EXTT13=
EXTT14=
EXTT15=
EXTT16=
EXTT17=
EXTT18=
EXTT19=
EXTT20=
EXTT21=
EXTT22=
EXTT23=
EXTT24=
PLAYORDER=
